<?xml version="1.0" encoding="utf-8"?>
<!-- Generator: Adobe Illustrator 15.0.0, SVG Export Plug-In  -->
<!DOCTYPE svg PUBLIC "-//W3C//DTD SVG 1.1//EN" "http://www.w3.org/Graphics/SVG/1.1/DTD/svg11.dtd" [
	<!ENTITY ns_flows "http://ns.adobe.com/Flows/1.0/">
]>
<svg version="1.1"
	 xmlns="http://www.w3.org/2000/svg" xmlns:xlink="http://www.w3.org/1999/xlink" xmlns:a="http://ns.adobe.com/AdobeSVGViewerExtensions/3.0/"
	 x="0px" y="0px" width="20px" height="20px" viewBox="-2 -2.43 20 20" enable-background="new -2 -2.43 20 20"
	 xml:space="preserve">
<defs>
</defs>
<path fill="#FFFFFF" stroke="#CA1D1D" stroke-miterlimit="10" d="M14.908,11.685c-0.866-0.622-1.758-1.214-2.652-1.795
	c-0.664-0.434-0.826-0.398-1.407,0.175c-0.744,0.73-1.495,0.811-2.404,0.284c-1.295-0.751-2.133-1.95-3.025-3.09
	C4.773,6.434,4.812,5.957,5.551,5.207C5.975,4.776,6.046,4.36,5.679,3.87C4.965,2.919,4.275,1.951,3.545,1.013
	c-0.46-0.592-1.023-0.667-1.651-0.25c-0.861,0.571-1.341,1.382-1.389,2.42C0.451,4.358,0.79,5.457,1.266,6.511
	c1.521,3.37,4.136,5.674,7.366,7.296c0.931,0.47,2.004,0.705,2.587,0.783c1.682,0.224,2.801-0.329,3.732-1.138
	C15.686,12.813,15.694,12.249,14.908,11.685z"/>
</svg>
