<?xml version="1.0" encoding="utf-8"?>
<!-- Generator: Adobe Illustrator 15.0.0, SVG Export Plug-In  -->
<!DOCTYPE svg PUBLIC "-//W3C//DTD SVG 1.1//EN" "http://www.w3.org/Graphics/SVG/1.1/DTD/svg11.dtd" [
	<!ENTITY ns_flows "http://ns.adobe.com/Flows/1.0/">
]>
<svg version="1.1"
	 xmlns="http://www.w3.org/2000/svg" xmlns:xlink="http://www.w3.org/1999/xlink" xmlns:a="http://ns.adobe.com/AdobeSVGViewerExtensions/3.0/"
	 x="0px" y="0px" width="20px" height="20px" viewBox="0 0.001 20 20" enable-background="new 0 0.001 20 20" xml:space="preserve">
<defs>
</defs>
<circle fill="#D71618" cx="10" cy="10.001" r="10"/>
<path fill="#FFFFFF" d="M13.964,9.677H6.228c-0.186,0-0.336-0.15-0.336-0.336V4.61c0-0.186,0.151-0.336,0.336-0.336h6.495
	c0.1,0,0.193,0.043,0.257,0.119l1.24,1.465c0.052,0.061,0.08,0.138,0.08,0.218v3.265C14.3,9.527,14.148,9.677,13.964,9.677z
	 M6.565,9.004h7.062V6.199l-1.06-1.252H6.565V9.004z"/>
<rect x="7.609" y="6.017" fill="#FFFFFF" width="5.016" height="0.449"/>
<rect x="7.594" y="7.448" fill="#FFFFFF" width="5.017" height="0.449"/>
<path fill="#FFFFFF" d="M16.5,15.055c0,0.371-0.301,0.673-0.673,0.673H4.173c-0.372,0-0.673-0.302-0.673-0.673v-5.11
	c0-0.371,0.301-0.673,0.673-0.673h11.654c0.372,0,0.673,0.302,0.673,0.673V15.055z"/>
<rect x="5.226" y="14.503" fill="#D71618" width="9.462" height="0.345"/>
<circle fill="#D71618" cx="14.29" cy="10.479" r="0.26"/>
<circle fill="#D71618" cx="15.538" cy="10.479" r="0.26"/>
</svg>
