<?xml version="1.0" encoding="utf-8"?>
<!-- Generator: Adobe Illustrator 15.0.0, SVG Export Plug-In  -->
<!DOCTYPE svg PUBLIC "-//W3C//DTD SVG 1.1//EN" "http://www.w3.org/Graphics/SVG/1.1/DTD/svg11.dtd" [
	<!ENTITY ns_flows "http://ns.adobe.com/Flows/1.0/">
]>
<svg version="1.1"
	 xmlns="http://www.w3.org/2000/svg" xmlns:xlink="http://www.w3.org/1999/xlink" xmlns:a="http://ns.adobe.com/AdobeSVGViewerExtensions/3.0/"
	 x="0px" y="0px" width="30px" height="30px" viewBox="-1.405 0 30 30" enable-background="new -1.405 0 30 30"
	 xml:space="preserve">
<defs>
</defs>
<path fill="#FFFFFF" d="M9.912,22.617c-1.059,1.06-2.778,1.06-3.837,0l-4.577-4.576c-1.06-1.06-1.06-2.778,0-3.838l0,0
	c1.06-1.061,2.778-1.061,3.838,0l4.576,4.576C10.972,19.839,10.972,21.558,9.912,22.617L9.912,22.617z"/>
<path fill="#9FA0A0" d="M7.993,24.117c-0.913,0-1.771-0.355-2.417-1.001L1,18.54c-1.333-1.334-1.333-3.502,0-4.835
	c0.646-0.646,1.504-1.002,2.417-1.002c0.914,0,1.772,0.356,2.418,1.002l4.576,4.576c0.646,0.646,1.001,1.504,1.001,2.417
	c0,0.914-0.355,1.772-1.001,2.418S8.907,24.117,7.993,24.117z M3.417,14.113c-0.536,0-1.041,0.209-1.42,0.589
	c-0.784,0.783-0.783,2.058,0,2.841l4.576,4.576c0.379,0.379,0.884,0.588,1.42,0.588c0.537,0,1.041-0.209,1.421-0.588
	c0.38-0.38,0.589-0.884,0.589-1.421c0-0.536-0.209-1.041-0.589-1.42l-4.576-4.576C4.458,14.322,3.954,14.113,3.417,14.113z"/>
<path fill="#FFFFFF" d="M8.64,17.516V2.936c0-1.233,0.999-2.23,2.23-2.23l0,0c1.231,0,2.23,0.998,2.23,2.23v9.084v-2.91
	c0-1.232,0.999-2.231,2.231-2.231l0,0c1.231,0,2.23,0.999,2.23,2.231v2.91V9.733c0-1.231,0.998-2.229,2.229-2.229l0,0
	c1.232,0,2.231,0.998,2.231,2.229v2.286v-1.452c0-1.231,0.999-2.229,2.23-2.229l0,0c1.231,0,2.23,0.998,2.23,2.229v3.974v5.777
	c0,4.958-4.02,8.977-8.978,8.977H15.51c-3.098,0-5.83-1.569-7.443-3.957l-2.794-3.438"/>
<path fill="#9FA0A0" d="M17.507,30H15.51C12.3,30,9.308,28.415,7.5,25.759l-2.877-3.595c-0.246-0.303-0.096-0.566,0.206-0.812
	s0.631-0.404,0.876-0.102l2.909,3.643c0.013,0.016,0.025,0.032,0.037,0.05c1.543,2.283,4.107,3.646,6.859,3.646h1.997
	c4.562,0,8.272-3.71,8.272-8.271v-9.751c0-0.841-0.685-1.525-1.525-1.525s-1.525,0.685-1.525,1.525v1.452
	c0,0.389-0.316,0.704-0.705,0.704c-0.39,0-0.705-0.315-0.705-0.704V9.733c0-0.841-0.685-1.524-1.526-1.524
	c-0.841,0-1.525,0.684-1.525,1.524v2.286c0,0.389-0.315,0.704-0.704,0.704c-0.39,0-0.705-0.315-0.705-0.704v-2.91
	c0-0.842-0.685-1.526-1.525-1.526c-0.841,0-1.527,0.685-1.527,1.526v2.91c0,0.389-0.315,0.704-0.704,0.704
	c-0.39,0-0.705-0.315-0.705-0.704V2.936c0-0.841-0.685-1.526-1.525-1.526S9.344,2.094,9.344,2.936v14.58
	c0,0.389-0.315,0.704-0.704,0.704c-0.39,0-0.705-0.315-0.705-0.704V2.936C7.935,1.317,9.252,0,10.871,0s2.935,1.317,2.935,2.936
	v3.667c0.445-0.272,0.968-0.429,1.527-0.429c1.05,0,1.973,0.555,2.491,1.386c0.521-0.472,1.212-0.76,1.969-0.76
	c1.107,0,2.073,0.616,2.573,1.523c0.511-0.43,1.17-0.689,1.889-0.689c1.618,0,2.936,1.316,2.936,2.935v9.751
	C27.189,25.657,22.846,30,17.507,30z"/>
</svg>
