<?xml version="1.0" encoding="utf-8"?>
<!-- Generator: Adobe Illustrator 15.0.0, SVG Export Plug-In  -->
<!DOCTYPE svg PUBLIC "-//W3C//DTD SVG 1.1//EN" "http://www.w3.org/Graphics/SVG/1.1/DTD/svg11.dtd" [
	<!ENTITY ns_flows "http://ns.adobe.com/Flows/1.0/">
]>
<svg version="1.1"
	 xmlns="http://www.w3.org/2000/svg" xmlns:xlink="http://www.w3.org/1999/xlink" xmlns:a="http://ns.adobe.com/AdobeSVGViewerExtensions/3.0/"
	 x="0px" y="0px" width="200px" height="42px" viewBox="0 -0.307 200 42" enable-background="new 0 -0.307 200 42"
	 xml:space="preserve">
<defs>
</defs>
<path d="M17.947,35.513l-1.848,1.741c-0.569-0.402-1.221-0.971-1.955-1.706c-0.735-0.733-1.481-1.587-2.239-2.559
	c-0.688-0.925-1.261-1.889-1.724-2.896c-0.462-1.007-0.776-1.782-0.942-2.327c-0.119,0.568-0.379,1.291-0.782,2.168
	C8.055,30.81,7.51,31.77,6.823,32.812c-0.64,0.995-1.393,1.968-2.257,2.914c-0.865,0.948-1.676,1.741-2.434,2.382L0,36.508
	c0.971-0.758,1.954-1.683,2.95-2.771c0.995-1.091,1.895-2.358,2.701-3.803c0.733-1.397,1.284-2.861,1.652-4.39
	c0.367-1.528,0.55-3.098,0.55-4.708v-2.559H1.919v-2.204H16.49v2.204h-5.9v2.559c0,1.634,0.22,3.334,0.657,5.1
	c0.439,1.765,1.097,3.311,1.973,4.637c0.876,1.328,1.724,2.382,2.541,3.164C16.578,34.518,17.308,35.109,17.947,35.513z
	 M29.461,41.003h-2.594V26.082h-4.514v14.921h-2.594v-27.1h2.594v9.798h4.514v-9.798h2.594V41.003z"/>
<path d="M64.54,39.609l-1.742,1.705c-0.687-0.402-1.333-0.847-1.937-1.332c-0.604-0.486-1.202-1.084-1.794-1.795
	c-0.616-0.758-1.096-1.434-1.439-2.026c-0.343-0.591-0.586-1.112-0.729-1.563c-0.189,0.475-0.479,1.031-0.87,1.671
	c-0.392,0.64-0.86,1.291-1.404,1.955c-0.45,0.521-0.948,1.042-1.493,1.563c-0.545,0.521-1.256,1.054-2.132,1.6
	c-0.854-0.569-1.559-1.108-2.115-1.618c-0.557-0.509-1.072-1.024-1.546-1.545c-0.545-0.64-1.013-1.286-1.404-1.937
	c-0.391-0.652-0.682-1.215-0.871-1.689c-0.166,0.451-0.42,0.978-0.764,1.582s-0.835,1.285-1.475,2.044
	c-0.592,0.687-1.196,1.272-1.812,1.759c-0.616,0.485-1.268,0.93-1.955,1.332l-1.741-1.705c0.853-0.475,1.671-1.024,2.452-1.652
	c0.782-0.629,1.469-1.381,2.061-2.257c0.688-1.042,1.179-2.015,1.475-2.915c0.296-0.899,0.444-1.823,0.444-2.771v-0.568h2.63v0.568
	c0,0.877,0.124,1.747,0.373,2.612c0.249,0.865,0.681,1.782,1.297,2.754c0.426,0.64,0.889,1.238,1.387,1.795
	c0.497,0.557,1.006,1.036,1.527,1.439c0.545-0.403,1.061-0.883,1.546-1.439c0.485-0.557,0.941-1.155,1.368-1.795
	c0.616-0.972,1.048-1.889,1.297-2.754c0.249-0.865,0.374-1.735,0.374-2.612v-0.568h2.629v0.568c0,0.948,0.143,1.872,0.426,2.771
	c0.285,0.9,0.77,1.873,1.458,2.915c0.568,0.876,1.244,1.628,2.025,2.257C62.87,38.585,63.687,39.135,64.54,39.609z M61.839,27.052
	h-2.63V13.903h2.63V27.052z"/>
<path d="M93.79,28.344H67.385v-2.203H93.79V28.344z M89.915,22.315H71.613v-8.413h2.702v6.208h15.6V22.315z M90.768,40.641H71.649
	v-9.454h2.63v7.25h16.489V40.641z"/>
<path fill="#E60012" d="M56.027,9.623c-0.002-0.882-0.674-1.605-1.534-1.689l0.001-0.003L36.899,6.482v0.001
	c-0.067-0.006-0.136-0.011-0.205-0.011c-1.153,0-2.088,0.935-2.088,2.088c0,0.006,0,0.012,0.001,0.017h-0.001v16.75h0.003
	c-0.001,0.015-0.002,0.029-0.002,0.044c0,1.153,0.935,2.089,2.088,2.089c0.07,0,0.139-0.004,0.207-0.012v0.002l11.894-1.078
	l-0.817,3.526l4.083-3.821l2.321-0.211c0.914-0.029,1.645-0.778,1.645-1.699c0-0.004,0-0.009,0-0.014h0V9.623z M50.032,11.03
	c0.701,0,1.269,1.003,1.269,2.241c0,1.238-0.568,2.242-1.269,2.242c-0.7,0-1.268-1.003-1.268-2.242
	C48.764,12.034,49.332,11.03,50.032,11.03z M42.608,11.03c0.701,0,1.27,1.003,1.27,2.241c0,1.238-0.568,2.242-1.27,2.242
	c-0.7,0-1.269-1.003-1.269-2.242C41.34,12.034,41.909,11.03,42.608,11.03z M53.014,20.657c-1.961,1.616-4.444,2.506-6.99,2.506
	s-5.029-0.89-6.99-2.506c-0.138-0.115-0.158-0.32-0.044-0.458c0.114-0.139,0.319-0.158,0.458-0.044
	c1.845,1.521,4.18,2.358,6.576,2.358s4.732-0.837,6.577-2.358c0.138-0.114,0.344-0.094,0.458,0.044
	C53.173,20.337,53.153,20.542,53.014,20.657z"/>
<path d="M111.227,25.447c-0.072,1.131-0.29,2.404-0.656,3.821c-0.364,1.417-0.942,2.704-1.732,3.861
	c-0.766,1.131-1.574,2.086-2.424,2.864c-0.852,0.777-1.719,1.427-2.604,1.945l-1.06-0.918c0.802-0.439,1.648-1.037,2.541-1.796
	c0.892-0.759,1.649-1.604,2.271-2.534c0.18-0.267,0.35-0.542,0.512-0.828s0.303-0.563,0.423-0.829
	c-0.216,0.027-0.438,0.051-0.665,0.07s-0.442,0.037-0.646,0.05c-0.635,0.04-1.431,0.063-2.389,0.07s-1.467,0.01-1.526,0.01v-1.197
	c0.071,0,0.628-0.003,1.67-0.01s1.845-0.03,2.407-0.07c0.263-0.026,0.529-0.05,0.799-0.069c0.27-0.021,0.554-0.043,0.854-0.07
	c0.203-0.545,0.359-1.098,0.467-1.656s0.18-1.044,0.215-1.456h-5.872v-1.258H111.227z M116.31,40.933h-1.348v-9.179h-3.682v-1.277
	h3.682v-7.104h1.348V40.933z"/>
<path d="M134.358,34.527h-4.292v6.405h-1.348v-6.405h-4.579v6.206h-1.348v-6.206h-4.238V33.29h15.805V34.527z M132.131,30.936
	h-11.35V24.27h11.35V30.936z M130.784,29.698v-4.191h-8.656v4.191H130.784z"/>
<path d="M146.769,35.864c-0.551,0.106-1.332,0.242-2.344,0.409c-1.012,0.166-1.997,0.262-2.954,0.289
	c-0.923,0.04-1.91,0.06-2.964,0.06s-1.616,0-1.688,0V25.048h1.348v10.297l3.358-0.04c0.826-0.026,1.757-0.112,2.793-0.259
	c1.035-0.146,1.853-0.286,2.451-0.419V35.864z M149.283,40.933h-1.348V23.372h1.348V40.933z"/>
<path d="M159.609,25.667c-0.072,1.171-0.26,2.448-0.565,3.831c-0.306,1.384-0.794,2.628-1.464,3.732
	c-0.623,1.023-1.27,1.912-1.939,2.663c-0.671,0.752-1.396,1.414-2.173,1.986l-1.06-0.879c0.574-0.398,1.248-0.978,2.02-1.735
	c0.772-0.759,1.452-1.65,2.038-2.674c0.132-0.227,0.252-0.456,0.359-0.688c0.108-0.233,0.204-0.456,0.288-0.669
	c-0.191,0.026-0.402,0.054-0.629,0.08c-0.228,0.026-0.461,0.039-0.701,0.039l-2.64,0.061v-1.237l3.018-0.04
	c0.228-0.013,0.47-0.033,0.728-0.06s0.482-0.054,0.673-0.08c0.168-0.519,0.294-1.058,0.377-1.616
	c0.084-0.559,0.145-1.045,0.181-1.456h-4.508v-1.258H159.609z M163.111,40.135h-1.311v-8.461h-2.622v-1.338h2.622v-6.565h1.311
	V40.135z M166.452,40.933h-1.312V23.372h1.312V40.933z"/>
<path d="M177.694,31.194c0,1.929-0.371,3.485-1.113,4.67s-1.742,1.776-2.999,1.776c-1.246,0-2.242-0.59-2.99-1.767
	c-0.749-1.178-1.123-2.737-1.123-4.68c0-1.955,0.374-3.519,1.123-4.689c0.748-1.171,1.744-1.756,2.99-1.756
	c1.257,0,2.257,0.585,2.999,1.756S177.694,29.239,177.694,31.194z M176.365,31.174c0-1.383-0.236-2.576-0.709-3.581
	s-1.158-1.507-2.057-1.507c-0.886,0-1.571,0.502-2.056,1.507c-0.485,1.005-0.728,2.198-0.728,3.581c0,1.411,0.242,2.618,0.728,3.622
	c0.484,1.005,1.17,1.507,2.056,1.507c0.898,0,1.584-0.505,2.057-1.517C176.129,33.775,176.365,32.571,176.365,31.174z
	 M182.741,40.933h-1.347V23.372h1.347V40.933z"/>
<path d="M196.121,32.891l-0.934,1.037c-0.264-0.146-0.692-0.452-1.285-0.918c-0.593-0.465-1.116-0.964-1.57-1.496
	c-0.371-0.426-0.695-0.865-0.971-1.317s-0.479-0.884-0.61-1.297c-0.12,0.426-0.3,0.875-0.538,1.347
	c-0.24,0.473-0.563,0.968-0.971,1.487c-0.467,0.585-0.967,1.095-1.499,1.526c-0.533,0.433-1.016,0.762-1.446,0.987l-0.934-0.957
	c0.479-0.24,1.026-0.608,1.643-1.108c0.617-0.498,1.159-1.08,1.626-1.745c0.454-0.652,0.808-1.391,1.06-2.215
	c0.251-0.825,0.377-1.637,0.377-2.435v-1.876h1.383v1.876c0,0.812,0.135,1.626,0.404,2.444c0.27,0.817,0.619,1.493,1.051,2.024
	c0.479,0.573,1.041,1.118,1.688,1.637C195.24,32.411,195.75,32.744,196.121,32.891z M200,40.533h-11.297v-5.428h1.348v4.211H200
	V40.533z M199.605,36.123h-1.33v-5.507h-3.573v-1.218h3.573v-2.335h-3.573v-1.217h3.573v-2.475h1.33V36.123z"/>
<path fill="#E60012" d="M138.333,17.994c-0.002-0.001-0.004-0.002-0.005-0.003c-0.044-0.026-0.361-0.203-0.902-0.18
	c0,0-0.547,0.048-1.235-0.33l-0.7-0.383c0.004-0.023,0.006-0.047,0.006-0.071c0-0.024-0.002-0.047-0.006-0.07l0.7-0.384
	c0.688-0.377,1.235-0.33,1.235-0.33c0.541,0.023,0.858-0.154,0.902-0.18c0.001,0,0.003-0.001,0.005-0.002
	c0.398-0.23,0.535-0.74,0.306-1.139c-0.23-0.399-0.74-0.536-1.14-0.305c-0.001,0.001-0.003,0.002-0.005,0.003
	c-0.044,0.025-0.356,0.212-0.606,0.691c0,0-0.231,0.498-0.903,0.905l-0.682,0.415c-0.037-0.029-0.078-0.054-0.123-0.071l0.018-0.797
	c0.002-0.074,0.007-0.145,0.013-0.212c0.062-0.654,0.319-1.023,0.319-1.023c0.191-0.299,0.26-0.559,0.283-0.716
	c0.013-0.083,0.014-0.137,0.013-0.154c0-0.002,0-0.004,0-0.006c0-0.46-0.373-0.834-0.833-0.834c-0.461,0-0.834,0.374-0.834,0.834
	c0,0.002,0,0.004,0,0.006c0,0.013,0,0.045,0.006,0.094c0.015,0.145,0.072,0.435,0.29,0.777c0,0,0.276,0.396,0.325,1.092
	c0.003,0.047,0.005,0.094,0.007,0.144l0.018,0.797c-0.044,0.018-0.086,0.042-0.123,0.071l-0.682-0.415
	c-0.671-0.408-0.903-0.905-0.903-0.905c-0.25-0.479-0.563-0.667-0.606-0.691c-0.001,0-0.003-0.002-0.005-0.003
	c-0.398-0.23-0.908-0.094-1.139,0.305s-0.094,0.909,0.305,1.139c0.002,0.001,0.004,0.002,0.006,0.002
	c0.043,0.026,0.361,0.203,0.901,0.18c0,0,0.547-0.048,1.235,0.33l0.7,0.383c-0.003,0.023-0.006,0.047-0.006,0.071
	c0,0.024,0.003,0.048,0.006,0.071l-0.7,0.383c-0.688,0.378-1.235,0.33-1.235,0.33c-0.54-0.023-0.858,0.153-0.901,0.18
	c-0.002,0.001-0.004,0.002-0.006,0.003c-0.398,0.23-0.535,0.74-0.305,1.139c0.23,0.399,0.74,0.536,1.139,0.305
	c0.002-0.001,0.004-0.002,0.005-0.003c0.044-0.024,0.356-0.211,0.606-0.691c0,0,0.232-0.497,0.903-0.905l0.682-0.415
	c0.037,0.029,0.079,0.054,0.123,0.072l-0.018,0.797c-0.002,0.074-0.007,0.145-0.013,0.212c-0.061,0.653-0.319,1.022-0.319,1.022
	c-0.19,0.3-0.259,0.56-0.283,0.717c-0.012,0.083-0.013,0.137-0.013,0.154c0,0.002,0,0.004,0,0.006c0,0.46,0.373,0.834,0.834,0.834
	c0.46,0,0.833-0.374,0.833-0.834c0-0.002,0-0.004,0-0.006c0.001-0.018,0-0.072-0.013-0.154c-0.023-0.157-0.092-0.417-0.283-0.717
	c0,0-0.258-0.369-0.319-1.022c-0.006-0.068-0.011-0.139-0.013-0.212l-0.018-0.797c0.045-0.018,0.086-0.042,0.123-0.072l0.682,0.415
	c0.672,0.408,0.903,0.905,0.903,0.905c0.25,0.48,0.563,0.667,0.606,0.691c0.002,0.001,0.004,0.002,0.005,0.003
	c0.399,0.23,0.909,0.094,1.14-0.305C138.868,18.734,138.731,18.224,138.333,17.994z"/>
<path fill="#8FC31F" d="M154.933,6.09c-0.002-0.001-0.005-0.002-0.007-0.004c-0.051-0.03-0.425-0.238-1.061-0.211
	c0,0-0.644,0.056-1.453-0.388l-0.824-0.451c0.005-0.027,0.007-0.055,0.007-0.083c0-0.028-0.002-0.056-0.007-0.083l0.824-0.451
	c0.81-0.444,1.453-0.388,1.453-0.388c0.636,0.027,1.01-0.181,1.061-0.211c0.002-0.001,0.005-0.002,0.007-0.003
	c0.469-0.271,0.63-0.871,0.358-1.34c-0.271-0.469-0.87-0.63-1.34-0.359c-0.002,0.001-0.004,0.002-0.006,0.003
	c-0.052,0.029-0.419,0.249-0.714,0.813c0,0-0.272,0.585-1.063,1.064l-0.802,0.488c-0.043-0.034-0.092-0.063-0.145-0.084l0.021-0.938
	c0.002-0.086,0.007-0.17,0.015-0.249c0.071-0.77,0.376-1.204,0.376-1.204c0.225-0.353,0.305-0.658,0.332-0.843
	c0.015-0.097,0.016-0.161,0.016-0.181c0-0.002,0-0.005,0-0.007c0-0.542-0.439-0.98-0.98-0.98c-0.542,0-0.98,0.439-0.98,0.98
	c0,0.002,0,0.005,0,0.007c0,0.015,0,0.053,0.006,0.11c0.018,0.17,0.085,0.512,0.342,0.915c0,0,0.325,0.464,0.383,1.284
	c0.004,0.054,0.006,0.111,0.008,0.168l0.021,0.938c-0.052,0.021-0.101,0.05-0.145,0.084l-0.802-0.488
	c-0.79-0.479-1.063-1.064-1.063-1.064c-0.294-0.564-0.661-0.784-0.713-0.813c-0.003-0.001-0.004-0.002-0.007-0.003
	c-0.469-0.271-1.068-0.11-1.339,0.359c-0.271,0.469-0.11,1.069,0.358,1.34c0.002,0.001,0.005,0.002,0.007,0.003
	c0.051,0.031,0.424,0.239,1.061,0.211c0,0,0.643-0.056,1.453,0.388l0.823,0.451c-0.004,0.027-0.007,0.056-0.007,0.083
	c0,0.028,0.003,0.056,0.007,0.083l-0.823,0.451c-0.811,0.444-1.453,0.388-1.453,0.388c-0.637-0.027-1.01,0.181-1.061,0.211
	c-0.002,0.001-0.005,0.002-0.007,0.004c-0.469,0.271-0.63,0.87-0.358,1.339c0.271,0.469,0.87,0.63,1.339,0.359
	c0.003-0.001,0.005-0.003,0.007-0.004c0.052-0.029,0.419-0.248,0.713-0.813c0,0,0.272-0.585,1.063-1.065l0.802-0.487
	c0.044,0.034,0.093,0.063,0.145,0.084l-0.021,0.938c-0.002,0.086-0.007,0.17-0.016,0.249c-0.071,0.769-0.375,1.204-0.375,1.204
	c-0.225,0.353-0.305,0.658-0.333,0.843c-0.015,0.097-0.016,0.161-0.015,0.182c0,0.002,0,0.005,0,0.007
	c0,0.542,0.438,0.981,0.98,0.981c0.541,0,0.98-0.439,0.98-0.981c0-0.002,0-0.004,0-0.007c0-0.021-0.001-0.084-0.016-0.182
	c-0.027-0.185-0.107-0.49-0.332-0.843c0,0-0.305-0.435-0.376-1.204c-0.008-0.079-0.013-0.163-0.015-0.249l-0.021-0.938
	c0.053-0.021,0.102-0.05,0.145-0.084l0.802,0.487c0.79,0.479,1.063,1.065,1.063,1.065c0.295,0.564,0.662,0.784,0.714,0.813
	c0.002,0.001,0.004,0.003,0.006,0.004c0.47,0.271,1.069,0.11,1.34-0.359C155.563,6.96,155.401,6.36,154.933,6.09z"/>
</svg>
