<?xml version="1.0" encoding="utf-8"?>
<!-- Generator: Adobe Illustrator 15.0.0, SVG Export Plug-In  -->
<!DOCTYPE svg PUBLIC "-//W3C//DTD SVG 1.1//EN" "http://www.w3.org/Graphics/SVG/1.1/DTD/svg11.dtd" [
	<!ENTITY ns_flows "http://ns.adobe.com/Flows/1.0/">
]>
<svg version="1.1"
	 xmlns="http://www.w3.org/2000/svg" xmlns:xlink="http://www.w3.org/1999/xlink" xmlns:a="http://ns.adobe.com/AdobeSVGViewerExtensions/3.0/"
	 x="0px" y="0px" width="320px" height="70px" viewBox="0 -1.891 320 70" enable-background="new 0 -1.891 320 70"
	 xml:space="preserve">
<defs>
</defs>
<path d="M28.715,56.82l-2.957,2.785c-0.91-0.643-1.953-1.553-3.127-2.729c-1.176-1.174-2.37-2.539-3.583-4.095
	c-1.1-1.479-2.018-3.021-2.757-4.634c-0.739-1.61-1.243-2.852-1.507-3.724c-0.19,0.91-0.607,2.066-1.251,3.469
	s-1.516,2.938-2.615,4.605c-1.023,1.591-2.228,3.147-3.61,4.662c-1.385,1.517-2.682,2.786-3.895,3.811L0,58.412
	c1.553-1.212,3.127-2.691,4.719-4.435c1.592-1.744,3.032-3.772,4.322-6.084c1.173-2.236,2.055-4.578,2.644-7.023
	c0.587-2.445,0.881-4.956,0.881-7.534v-4.094H3.07v-3.526h23.313v3.526h-9.439v4.094c0,2.616,0.351,5.335,1.052,8.16
	c0.702,2.824,1.754,5.298,3.157,7.42c1.402,2.125,2.758,3.811,4.065,5.062C26.525,55.228,27.692,56.176,28.715,56.82z
	 M47.138,65.604h-4.151V41.73h-7.222v23.874h-4.151v-43.36h4.151v15.677h7.222V22.245h4.151V65.604z"/>
<path d="M103.264,63.375l-2.787,2.729c-1.099-0.645-2.132-1.355-3.099-2.132c-0.967-0.777-1.924-1.733-2.871-2.871
	c-0.986-1.214-1.754-2.295-2.303-3.242c-0.549-0.946-0.938-1.78-1.166-2.502c-0.303,0.759-0.767,1.649-1.392,2.674
	c-0.626,1.023-1.375,2.064-2.247,3.127c-0.72,0.833-1.517,1.668-2.388,2.502c-0.873,0.833-2.009,1.687-3.412,2.56
	c-1.365-0.911-2.494-1.773-3.383-2.589c-0.891-0.814-1.715-1.64-2.473-2.473c-0.873-1.023-1.621-2.057-2.246-3.099
	c-0.626-1.043-1.091-1.943-1.394-2.702c-0.265,0.722-0.673,1.564-1.223,2.531s-1.336,2.056-2.359,3.27
	c-0.948,1.1-1.914,2.037-2.899,2.814c-0.986,0.776-2.028,1.487-3.127,2.132l-2.786-2.729c1.364-0.76,2.673-1.64,3.923-2.645
	c1.251-1.005,2.35-2.208,3.298-3.61c1.1-1.667,1.886-3.223,2.359-4.663c0.474-1.439,0.71-2.918,0.71-4.435v-0.91h4.209v0.91
	c0,1.402,0.198,2.795,0.597,4.179c0.397,1.385,1.089,2.853,2.075,4.407c0.682,1.023,1.421,1.98,2.218,2.871
	c0.795,0.891,1.61,1.658,2.444,2.303c0.872-0.645,1.696-1.412,2.474-2.303c0.776-0.891,1.506-1.848,2.188-2.871
	c0.985-1.555,1.677-3.022,2.076-4.407c0.397-1.384,0.597-2.776,0.597-4.179v-0.91h4.208v0.91c0,1.517,0.228,2.995,0.682,4.435
	c0.456,1.44,1.232,2.996,2.332,4.663c0.91,1.402,1.991,2.605,3.241,3.61C100.592,61.735,101.899,62.615,103.264,63.375z
	 M98.942,43.283h-4.208V22.245h4.208V43.283z"/>
<path d="M150.063,45.35h-42.248v-3.525h42.248V45.35z M143.864,35.704h-29.283V22.245h4.322v9.934h24.96V35.704z M145.229,65.024
	h-30.59V49.898h4.208v11.601h26.382V65.024z"/>
<path fill="#E60012" d="M89.644,15.396c-0.003-1.411-1.079-2.568-2.454-2.703l0.001-0.004l-28.153-2.318v0.002
	c-0.108-0.01-0.217-0.017-0.328-0.017c-1.845,0-3.34,1.497-3.34,3.341c0,0.01,0,0.019,0.001,0.027h-0.002v26.799h0.004
	c-0.001,0.024-0.003,0.047-0.003,0.071c0,1.845,1.495,3.342,3.34,3.342c0.112,0,0.223-0.007,0.332-0.019v0.003l19.03-1.725
	l-1.307,5.642l6.532-6.114l3.714-0.337c1.462-0.048,2.632-1.245,2.632-2.719c0-0.007,0-0.014-0.001-0.021h0.001V15.396z
	 M80.051,17.648c1.122,0,2.031,1.605,2.031,3.586c0,1.981-0.909,3.587-2.031,3.587c-1.121,0-2.029-1.605-2.029-3.587
	C78.021,19.254,78.93,17.648,80.051,17.648z M68.174,17.648c1.122,0,2.031,1.605,2.031,3.586c0,1.981-0.909,3.587-2.031,3.587
	c-1.12,0-2.03-1.605-2.03-3.587C66.144,19.254,67.054,17.648,68.174,17.648z M84.823,33.051c-3.138,2.586-7.11,4.01-11.185,4.01
	c-4.074,0-8.046-1.424-11.184-4.01c-0.222-0.183-0.253-0.511-0.071-0.733c0.183-0.222,0.511-0.253,0.733-0.071
	c2.952,2.433,6.688,3.773,10.522,3.773c3.834,0,7.571-1.34,10.522-3.773c0.222-0.182,0.55-0.151,0.733,0.071
	C85.077,32.54,85.045,32.868,84.823,33.051z"/>
<path d="M177.962,40.716c-0.114,1.81-0.464,3.847-1.049,6.114c-0.584,2.267-1.508,4.326-2.772,6.178
	c-1.226,1.81-2.52,3.337-3.879,4.582c-1.361,1.245-2.75,2.283-4.167,3.113l-1.695-1.469c1.283-0.703,2.639-1.66,4.066-2.874
	c1.427-1.213,2.639-2.564,3.635-4.055c0.287-0.426,0.56-0.867,0.818-1.325c0.259-0.457,0.484-0.899,0.676-1.325
	c-0.345,0.043-0.699,0.08-1.063,0.112c-0.364,0.031-0.708,0.059-1.034,0.08c-1.016,0.063-2.289,0.101-3.821,0.111
	c-1.533,0.011-2.348,0.017-2.443,0.017V48.06c0.115,0,1.006-0.005,2.673-0.016c1.667-0.012,2.95-0.049,3.851-0.112
	c0.421-0.043,0.848-0.08,1.278-0.111c0.431-0.032,0.886-0.069,1.365-0.112c0.326-0.872,0.575-1.756,0.747-2.65
	c0.172-0.894,0.287-1.67,0.345-2.33h-9.396v-2.012H177.962z M186.095,65.492h-2.155V50.806h-5.891v-2.044h5.891V37.396h2.155V65.492
	z"/>
<path d="M214.974,55.243h-6.868v10.249h-2.155V55.243h-7.327v9.93h-2.155v-9.93h-6.781v-1.979h25.287V55.243z M211.41,49.496h-18.16
	V38.832h18.16V49.496z M209.255,47.517v-6.705h-13.851v6.705H209.255z"/>
<path d="M234.829,57.383c-0.881,0.17-2.131,0.388-3.75,0.654c-1.618,0.267-3.194,0.42-4.727,0.463
	c-1.476,0.063-3.056,0.096-4.741,0.096c-1.687,0-2.586,0-2.701,0V40.077h2.155v16.475l5.373-0.063
	c1.322-0.043,2.812-0.181,4.469-0.415c1.656-0.234,2.964-0.457,3.922-0.671V57.383z M238.853,65.492h-2.155V37.396h2.155V65.492z"/>
<path d="M255.375,41.067c-0.115,1.873-0.416,3.917-0.905,6.13c-0.488,2.214-1.27,4.204-2.342,5.971
	c-0.996,1.639-2.031,3.06-3.104,4.262c-1.073,1.203-2.232,2.263-3.477,3.178l-1.695-1.405c0.919-0.639,1.997-1.564,3.232-2.777
	c1.235-1.214,2.322-2.64,3.261-4.278c0.211-0.362,0.402-0.729,0.575-1.102c0.173-0.373,0.326-0.729,0.46-1.069
	c-0.307,0.042-0.643,0.085-1.006,0.127c-0.364,0.043-0.738,0.063-1.121,0.063l-4.224,0.097v-1.98l4.827-0.063
	c0.364-0.021,0.752-0.053,1.164-0.096c0.412-0.042,0.771-0.085,1.077-0.128c0.269-0.83,0.47-1.692,0.604-2.586
	s0.23-1.671,0.288-2.33h-7.213v-2.012H255.375z M260.979,64.215h-2.098V50.678h-4.195v-2.14h4.195V38.033h2.098V64.215z
	 M266.323,65.492h-2.098V37.396h2.098V65.492z"/>
<path d="M284.312,49.911c0,3.086-0.595,5.577-1.782,7.472s-2.787,2.842-4.799,2.842c-1.992,0-3.587-0.943-4.784-2.826
	c-1.197-1.884-1.796-4.38-1.796-7.487c0-3.129,0.599-5.63,1.796-7.503s2.792-2.81,4.784-2.81c2.012,0,3.611,0.937,4.799,2.81
	S284.312,46.782,284.312,49.911z M282.185,49.879c0-2.213-0.378-4.123-1.135-5.73s-1.854-2.411-3.29-2.411
	c-1.418,0-2.515,0.804-3.29,2.411c-0.776,1.607-1.164,3.518-1.164,5.73c0,2.257,0.388,4.188,1.164,5.795
	c0.775,1.607,1.872,2.411,3.29,2.411c1.437,0,2.533-0.809,3.29-2.427C281.807,54.041,282.185,52.114,282.185,49.879z
	 M292.386,65.492h-2.155V37.396h2.155V65.492z"/>
<path d="M313.793,52.625l-1.493,1.66c-0.422-0.234-1.107-0.724-2.056-1.469s-1.786-1.543-2.514-2.395
	c-0.594-0.681-1.111-1.384-1.552-2.107c-0.441-0.724-0.767-1.415-0.978-2.075c-0.191,0.682-0.479,1.4-0.861,2.155
	c-0.384,0.756-0.9,1.548-1.552,2.379c-0.747,0.937-1.547,1.751-2.399,2.442s-1.624,1.219-2.313,1.58l-1.494-1.532
	c0.767-0.384,1.643-0.974,2.629-1.772c0.987-0.798,1.854-1.729,2.602-2.793c0.727-1.043,1.292-2.225,1.694-3.544
	s0.604-2.618,0.604-3.896v-3.001h2.213v3.001c0,1.299,0.216,2.602,0.646,3.911c0.432,1.309,0.991,2.39,1.681,3.24
	c0.767,0.916,1.667,1.788,2.702,2.618C312.385,51.858,313.199,52.391,313.793,52.625z M320,64.854h-18.074v-8.685h2.155v6.737H320
	V64.854z M319.368,57.797h-2.127v-8.812h-5.718v-1.948h5.718v-3.735h-5.718v-1.947h5.718v-3.959h2.127V57.797z"/>
<path fill="#E60012" d="M221.333,28.791c-0.003-0.001-0.006-0.003-0.009-0.005c-0.069-0.042-0.577-0.324-1.443-0.287
	c0,0-0.874,0.076-1.976-0.528l-1.12-0.613c0.005-0.037,0.009-0.075,0.009-0.114s-0.004-0.076-0.009-0.113l1.12-0.613
	c1.102-0.604,1.977-0.528,1.977-0.528c0.865,0.038,1.373-0.246,1.442-0.287c0.003-0.001,0.006-0.003,0.009-0.004
	c0.638-0.369,0.856-1.185,0.488-1.822c-0.368-0.638-1.185-0.857-1.822-0.488c-0.003,0.001-0.006,0.003-0.009,0.005
	c-0.07,0.04-0.569,0.338-0.97,1.106c0,0-0.371,0.796-1.445,1.448l-1.091,0.663c-0.06-0.047-0.125-0.085-0.196-0.114l0.028-1.276
	c0.003-0.118,0.01-0.231,0.02-0.339c0.099-1.046,0.512-1.637,0.512-1.637c0.306-0.479,0.414-0.895,0.453-1.146
	c0.02-0.132,0.021-0.219,0.02-0.247c0-0.003,0-0.006,0-0.01c0-0.737-0.597-1.334-1.333-1.334c-0.737,0-1.334,0.597-1.334,1.334
	c0,0.003,0,0.006,0,0.01c0,0.021,0,0.072,0.009,0.149c0.023,0.231,0.115,0.696,0.464,1.244c0,0,0.442,0.632,0.521,1.747
	c0.005,0.075,0.009,0.151,0.011,0.229l0.029,1.276c-0.071,0.028-0.138,0.067-0.197,0.114l-1.091-0.663
	c-1.073-0.652-1.445-1.448-1.445-1.448c-0.4-0.768-0.899-1.066-0.97-1.106c-0.003-0.001-0.006-0.003-0.009-0.005
	c-0.638-0.369-1.453-0.15-1.822,0.488c-0.368,0.638-0.149,1.454,0.488,1.822c0.003,0.001,0.006,0.003,0.009,0.004
	c0.069,0.042,0.578,0.325,1.443,0.287c0,0,0.874-0.076,1.977,0.528l1.12,0.613c-0.006,0.038-0.01,0.075-0.01,0.114
	s0.004,0.077,0.01,0.114l-1.12,0.613c-1.103,0.604-1.977,0.528-1.977,0.528c-0.865-0.037-1.374,0.246-1.443,0.287
	c-0.003,0.001-0.006,0.003-0.009,0.005c-0.638,0.368-0.856,1.184-0.488,1.822c0.369,0.638,1.185,0.856,1.822,0.488
	c0.003-0.002,0.006-0.003,0.009-0.005c0.07-0.04,0.569-0.338,0.97-1.106c0,0,0.372-0.795,1.445-1.448l1.091-0.664
	c0.06,0.047,0.126,0.085,0.197,0.114l-0.029,1.275c-0.003,0.118-0.01,0.231-0.02,0.339c-0.098,1.046-0.512,1.637-0.512,1.637
	c-0.305,0.479-0.414,0.895-0.452,1.146c-0.02,0.132-0.021,0.219-0.021,0.247c0,0.003,0,0.007,0,0.01
	c0,0.737,0.597,1.334,1.334,1.334c0.736,0,1.333-0.598,1.333-1.334c0-0.003,0-0.006,0-0.01c0.001-0.028,0-0.115-0.02-0.247
	c-0.039-0.251-0.147-0.667-0.453-1.146c0,0-0.413-0.591-0.512-1.637c-0.01-0.108-0.017-0.221-0.02-0.339l-0.028-1.275
	c0.071-0.029,0.137-0.067,0.196-0.114l1.091,0.664c1.074,0.652,1.445,1.448,1.445,1.448c0.4,0.768,0.899,1.066,0.97,1.106
	c0.003,0.002,0.006,0.003,0.009,0.005c0.638,0.368,1.454,0.15,1.822-0.488S221.971,29.159,221.333,28.791z"/>
<path fill="#8FC31F" d="M247.892,9.744c-0.003-0.002-0.007-0.004-0.011-0.006c-0.081-0.049-0.68-0.381-1.697-0.338
	c0,0-1.028,0.09-2.324-0.621l-1.318-0.721c0.007-0.044,0.011-0.088,0.011-0.134c0-0.045-0.004-0.09-0.011-0.133l1.318-0.721
	c1.296-0.71,2.324-0.621,2.324-0.621c1.019,0.043,1.616-0.289,1.697-0.338c0.004-0.002,0.008-0.004,0.011-0.005
	c0.75-0.434,1.008-1.393,0.574-2.144c-0.434-0.751-1.393-1.008-2.144-0.574c-0.003,0.002-0.007,0.004-0.01,0.006
	c-0.083,0.046-0.67,0.397-1.142,1.301c0,0-0.437,0.936-1.7,1.703l-1.283,0.78c-0.069-0.055-0.147-0.1-0.23-0.134l0.034-1.5
	c0.003-0.138,0.011-0.271,0.022-0.398c0.115-1.231,0.603-1.925,0.603-1.925c0.358-0.564,0.486-1.053,0.531-1.349
	c0.023-0.155,0.024-0.257,0.024-0.29c0-0.004,0-0.008,0-0.012c0-0.867-0.703-1.569-1.569-1.569s-1.568,0.702-1.568,1.569
	c0,0.004,0,0.008,0,0.012c0,0.024,0,0.084,0.01,0.175c0.027,0.273,0.136,0.819,0.546,1.464c0,0,0.521,0.743,0.613,2.054
	c0.006,0.087,0.01,0.177,0.012,0.27l0.034,1.5c-0.084,0.034-0.161,0.08-0.231,0.134l-1.283-0.78
	c-1.264-0.767-1.699-1.703-1.699-1.703c-0.472-0.903-1.059-1.254-1.142-1.301c-0.004-0.002-0.007-0.004-0.011-0.006
	c-0.75-0.434-1.71-0.177-2.143,0.574c-0.434,0.75-0.177,1.71,0.574,2.144c0.003,0.001,0.007,0.003,0.01,0.005
	c0.082,0.049,0.68,0.381,1.697,0.338c0,0,1.029-0.09,2.326,0.621l1.316,0.721c-0.007,0.043-0.011,0.088-0.011,0.133
	c0,0.045,0.005,0.09,0.011,0.134l-1.316,0.721c-1.297,0.711-2.326,0.621-2.326,0.621c-1.018-0.043-1.615,0.289-1.697,0.338
	c-0.003,0.002-0.007,0.003-0.01,0.006c-0.751,0.433-1.008,1.393-0.574,2.143c0.433,0.751,1.393,1.008,2.143,0.575
	c0.004-0.002,0.008-0.004,0.011-0.006c0.083-0.046,0.67-0.397,1.142-1.301c0,0,0.436-0.936,1.699-1.704l1.283-0.78
	c0.07,0.055,0.147,0.101,0.231,0.134l-0.034,1.5c-0.003,0.139-0.011,0.272-0.023,0.399c-0.115,1.23-0.602,1.926-0.602,1.926
	c-0.358,0.564-0.486,1.053-0.532,1.349c-0.023,0.155-0.024,0.257-0.023,0.29c0,0.004,0,0.008,0,0.011
	c0,0.867,0.702,1.569,1.568,1.569s1.569-0.702,1.569-1.569c0-0.003,0-0.007,0-0.011c0-0.033-0.001-0.135-0.024-0.29
	c-0.045-0.296-0.173-0.785-0.531-1.349c0,0-0.487-0.695-0.603-1.926c-0.012-0.127-0.02-0.26-0.022-0.399l-0.034-1.5
	c0.083-0.034,0.161-0.08,0.23-0.134l1.283,0.78c1.264,0.768,1.7,1.704,1.7,1.704c0.472,0.903,1.059,1.254,1.142,1.301
	c0.003,0.002,0.006,0.004,0.01,0.006c0.751,0.433,1.71,0.176,2.144-0.575C248.899,11.136,248.642,10.177,247.892,9.744z"/>
</svg>
