<?xml version="1.0" encoding="utf-8"?>
<!-- Generator: Adobe Illustrator 15.0.0, SVG Export Plug-In  -->
<!DOCTYPE svg PUBLIC "-//W3C//DTD SVG 1.1//EN" "http://www.w3.org/Graphics/SVG/1.1/DTD/svg11.dtd" [
	<!ENTITY ns_flows "http://ns.adobe.com/Flows/1.0/">
]>
<svg version="1.1"
	 xmlns="http://www.w3.org/2000/svg" xmlns:xlink="http://www.w3.org/1999/xlink" xmlns:a="http://ns.adobe.com/AdobeSVGViewerExtensions/3.0/"
	 x="0px" y="0px" width="20px" height="20px" viewBox="0 0 20 20" enable-background="new 0 0 20 20" xml:space="preserve">
<defs>
</defs>
<circle fill="#D71618" cx="10" cy="10" r="10"/>
<circle fill="#FFFFFF" cx="9.98" cy="9.579" r="1.043"/>
<path fill="#FFFFFF" d="M4.142,3.5v13h11.715v-13H4.142z M5.206,15.949c-0.222,0-0.402-0.181-0.402-0.401
	c0-0.223,0.18-0.401,0.402-0.401c0.221,0,0.401,0.179,0.401,0.401C5.607,15.769,5.427,15.949,5.206,15.949z M5.206,4.904
	c-0.222,0-0.402-0.18-0.402-0.401c0-0.221,0.18-0.401,0.402-0.401c0.221,0,0.401,0.181,0.401,0.401
	C5.607,4.725,5.427,4.904,5.206,4.904z M10.01,13.732c-2.31,0-4.183-1.874-4.183-4.185c0-2.309,1.873-4.183,4.183-4.183
	s4.182,1.874,4.182,4.183C14.192,11.858,12.32,13.732,10.01,13.732z M14.814,15.888c-0.222,0-0.401-0.18-0.401-0.4
	c0-0.222,0.18-0.401,0.401-0.401c0.223,0,0.4,0.18,0.4,0.401C15.215,15.708,15.037,15.888,14.814,15.888z M14.814,4.844
	c-0.222,0-0.401-0.18-0.401-0.401c0-0.222,0.18-0.401,0.401-0.401c0.223,0,0.4,0.18,0.4,0.401
	C15.215,4.664,15.037,4.844,14.814,4.844z"/>
</svg>
