<?xml version="1.0" encoding="utf-8"?>
<!-- Generator: Adobe Illustrator 15.0.0, SVG Export Plug-In  -->
<!DOCTYPE svg PUBLIC "-//W3C//DTD SVG 1.1//EN" "http://www.w3.org/Graphics/SVG/1.1/DTD/svg11.dtd" [
	<!ENTITY ns_flows "http://ns.adobe.com/Flows/1.0/">
]>
<svg version="1.1"
	 xmlns="http://www.w3.org/2000/svg" xmlns:xlink="http://www.w3.org/1999/xlink" xmlns:a="http://ns.adobe.com/AdobeSVGViewerExtensions/3.0/"
	 x="0px" y="0px" width="20px" height="20px" viewBox="-1.713 0 20 20" enable-background="new -1.713 0 20 20"
	 xml:space="preserve">
<defs>
</defs>
<path fill="#FFFFFF" stroke="#CA1D1D" stroke-miterlimit="10" d="M16.074,3.172c0-0.395-0.293-0.715-0.653-0.715H3.629
	c-0.36,0-0.653,0.32-0.653,0.715v15.613c0,0.395,0.293,0.715,0.653,0.715h8.741l3.704-4.057V3.172z"/>
<path fill="#FFFFFF" stroke="#CA1D1D" stroke-miterlimit="10" d="M13.6,1.216c0-0.396-0.293-0.716-0.654-0.716H1.153
	C0.793,0.5,0.5,0.821,0.5,1.216v15.612c0,0.396,0.293,0.716,0.653,0.716h8.74l3.706-4.058V1.216z"/>
<line fill="none" stroke="#CA1D1D" stroke-linecap="round" stroke-linejoin="round" stroke-miterlimit="10" x1="2.976" y1="3.732" x2="11.123" y2="3.732"/>
<line fill="none" stroke="#CA1D1D" stroke-linecap="round" stroke-linejoin="round" stroke-miterlimit="10" x1="2.976" y1="7.355" x2="11.123" y2="7.355"/>
<line fill="none" stroke="#CA1D1D" stroke-linecap="round" stroke-linejoin="round" stroke-miterlimit="10" x1="2.976" y1="10.979" x2="7.92" y2="10.979"/>
</svg>
