<?xml version="1.0" encoding="utf-8"?>
<!-- Generator: Adobe Illustrator 15.0.0, SVG Export Plug-In  -->
<!DOCTYPE svg PUBLIC "-//W3C//DTD SVG 1.1//EN" "http://www.w3.org/Graphics/SVG/1.1/DTD/svg11.dtd" [
	<!ENTITY ns_flows "http://ns.adobe.com/Flows/1.0/">
]>
<svg version="1.1"
	 xmlns="http://www.w3.org/2000/svg" xmlns:xlink="http://www.w3.org/1999/xlink" xmlns:a="http://ns.adobe.com/AdobeSVGViewerExtensions/3.0/"
	 x="0px" y="0px" width="20px" height="20px" viewBox="-0.987 0 20 20" enable-background="new -0.987 0 20 20"
	 xml:space="preserve">
<defs>
</defs>
<circle fill="#D71618" cx="8.982" cy="9.352" r="1.605"/>
<path fill="#D71618" d="M0,0v20h18.025V0H0z M1.636,19.151c-0.341,0-0.618-0.276-0.618-0.617s0.276-0.617,0.618-0.617
	c0.341,0,0.617,0.276,0.617,0.617S1.977,19.151,1.636,19.151z M1.636,2.16c-0.341,0-0.618-0.276-0.618-0.617
	c0-0.341,0.276-0.618,0.618-0.618c0.341,0,0.617,0.277,0.617,0.618C2.253,1.884,1.977,2.16,1.636,2.16z M9.028,15.741
	c-3.554,0-6.436-2.882-6.436-6.436c0-3.554,2.882-6.435,6.436-6.435s6.435,2.881,6.435,6.435
	C15.463,12.859,12.582,15.741,9.028,15.741z M16.42,19.059c-0.341,0-0.617-0.276-0.617-0.617s0.276-0.617,0.617-0.617
	s0.617,0.276,0.617,0.617S16.761,19.059,16.42,19.059z M16.42,2.067c-0.341,0-0.617-0.276-0.617-0.617
	c0-0.34,0.276-0.617,0.617-0.617s0.617,0.277,0.617,0.617C17.037,1.791,16.761,2.067,16.42,2.067z"/>
</svg>
