<?xml version="1.0" encoding="utf-8"?>
<!-- Generator: Adobe Illustrator 15.0.0, SVG Export Plug-In  -->
<!DOCTYPE svg PUBLIC "-//W3C//DTD SVG 1.1//EN" "http://www.w3.org/Graphics/SVG/1.1/DTD/svg11.dtd" [
	<!ENTITY ns_flows "http://ns.adobe.com/Flows/1.0/">
]>
<svg version="1.1"
	 xmlns="http://www.w3.org/2000/svg" xmlns:xlink="http://www.w3.org/1999/xlink" xmlns:a="http://ns.adobe.com/AdobeSVGViewerExtensions/3.0/"
	 x="0px" y="0px" width="20px" height="20px" viewBox="0 -0.545 20 20" enable-background="new 0 -0.545 20 20"
	 xml:space="preserve">
<defs>
</defs>
<path fill="#FFFFFF" stroke="#CA1D1D" stroke-miterlimit="10" d="M18.75,14.667c-1.098-0.787-2.227-1.536-3.359-2.273
	c-0.841-0.549-1.046-0.504-1.783,0.222c-0.941,0.926-1.894,1.027-3.045,0.36c-1.64-0.952-2.701-2.47-3.832-3.914
	c-0.818-1.045-0.768-1.65,0.168-2.6C7.436,5.917,7.525,5.39,7.06,4.769c-0.904-1.205-1.778-2.431-2.703-3.62
	C3.774,0.4,3.063,0.306,2.267,0.833c-1.09,0.724-1.698,1.75-1.759,3.065C0.439,5.388,0.868,6.779,1.47,8.114
	c1.927,4.269,5.238,7.186,9.33,9.242c1.178,0.594,2.538,0.892,3.276,0.99c2.131,0.283,3.549-0.416,4.729-1.44
	C19.735,16.097,19.745,15.381,18.75,14.667z"/>
</svg>
