<?xml version="1.0" encoding="utf-8"?>
<!-- Generator: Adobe Illustrator 15.0.0, SVG Export Plug-In  -->
<!DOCTYPE svg PUBLIC "-//W3C//DTD SVG 1.1//EN" "http://www.w3.org/Graphics/SVG/1.1/DTD/svg11.dtd" [
	<!ENTITY ns_flows "http://ns.adobe.com/Flows/1.0/">
]>
<svg version="1.1"
	 xmlns="http://www.w3.org/2000/svg" xmlns:xlink="http://www.w3.org/1999/xlink" xmlns:a="http://ns.adobe.com/AdobeSVGViewerExtensions/3.0/"
	 x="0px" y="0px" width="20px" height="20px" viewBox="-3.897 0 20 20" enable-background="new -3.897 0 20 20"
	 xml:space="preserve">
<defs>
</defs>
<path fill="#D71618" d="M10.826,0H1.38C0.618,0,0,0.618,0,1.38v17.24C0,19.383,0.618,20,1.38,20h9.446
	c0.764,0,1.381-0.617,1.381-1.38V1.38C12.207,0.618,11.589,0,10.826,0z M4.839,1.181h2.528c0.244,0,0.441,0.197,0.441,0.441
	S7.611,2.063,7.367,2.063H4.839c-0.243,0-0.44-0.197-0.44-0.441S4.596,1.181,4.839,1.181z M6.104,19.172
	c-0.617,0-1.117-0.5-1.117-1.117s0.5-1.117,1.117-1.117s1.117,0.5,1.117,1.117S6.721,19.172,6.104,19.172z M11.218,16.232H0.988
	V2.944h10.23V16.232z"/>
</svg>
